<?xml version="1.0" standalone="no"?>
<!DOCTYPE svg PUBLIC "-//W3C//DTD SVG 20010904//EN"
 "http://www.w3.org/TR/2001/REC-SVG-20010904/DTD/svg10.dtd">
<svg version="1.0" xmlns="http://www.w3.org/2000/svg"
 width="1314.000000pt" height="1314.000000pt" viewBox="0 0 1314.000000 1314.000000"
 preserveAspectRatio="xMidYMid meet">
<metadata>
Created by potrace 1.14, written by Peter Selinger 2001-2017
</metadata>
<g transform="translate(0.000000,1314.000000) scale(0.100000,-0.100000)"
fill="#000000" stroke="none">
<path d="M6389 13136 c-2 -2 -57 -7 -123 -10 -65 -4 -135 -9 -155 -11 -20 -2
-67 -7 -106 -10 -104 -8 -402 -46 -470 -59 -11 -2 -40 -7 -65 -11 -25 -4 -54
-9 -65 -11 -11 -3 -36 -7 -55 -10 -19 -3 -41 -7 -49 -10 -8 -2 -30 -7 -50 -10
-20 -3 -42 -7 -50 -10 -8 -3 -55 -14 -105 -25 -116 -26 -107 -24 -201 -49 -44
-12 -138 -40 -210 -62 -71 -23 -134 -43 -140 -44 -18 -3 -299 -112 -360 -138
-33 -15 -82 -37 -110 -49 -96 -42 -311 -155 -425 -222 -425 -252 -794 -576
-1069 -940 -33 -44 -64 -84 -68 -90 -23 -28 -108 -161 -157 -245 -191 -323
-353 -764 -412 -1120 -50 -309 -59 -414 -59 -730 0 -135 3 -288 7 -340 7 -85
13 -135 34 -300 16 -126 62 -330 109 -484 334 -1103 1202 -1849 2715 -2335
232 -74 558 -169 640 -186 8 -2 51 -12 95 -24 63 -16 312 -75 405 -96 8 -2 67
-15 130 -29 63 -15 126 -29 140 -31 24 -5 50 -10 88 -19 22 -5 175 -40 294
-66 135 -31 563 -139 638 -162 36 -11 117 -36 180 -55 63 -19 124 -39 135 -44
11 -4 67 -26 125 -47 560 -209 893 -497 1013 -877 43 -138 52 -207 51 -400 -1
-172 -16 -277 -60 -417 -96 -303 -304 -554 -604 -730 -133 -78 -418 -193 -551
-222 -166 -37 -259 -57 -284 -60 -16 -3 -48 -8 -70 -11 -22 -3 -49 -7 -60 -10
-11 -2 -56 -7 -100 -11 -44 -3 -89 -8 -100 -10 -107 -21 -747 -21 -875 0 -14
2 -54 7 -90 11 -36 3 -81 8 -100 11 -54 8 -284 45 -295 48 -5 2 -28 6 -50 11
-86 16 -337 80 -445 113 -231 70 -605 215 -739 286 -14 8 -75 39 -136 69 -60
30 -150 78 -199 106 -49 28 -90 51 -92 51 -6 0 -111 67 -233 149 -62 42 -121
81 -130 86 -9 6 -18 12 -21 15 -3 3 -41 32 -85 64 -225 166 -436 358 -635 576
-97 106 -94 105 -215 46 -147 -73 -306 -204 -515 -425 -8 -9 -33 -39 -55 -66
-22 -28 -43 -52 -46 -55 -23 -20 -149 -224 -194 -315 -104 -212 -136 -351
-131 -570 4 -160 6 -174 38 -305 30 -122 106 -314 161 -405 41 -67 121 -191
126 -195 4 -3 18 -21 31 -40 62 -89 207 -238 352 -361 276 -234 495 -378 820
-541 98 -48 180 -88 183 -88 4 0 32 -12 63 -26 65 -30 265 -109 332 -130 25
-9 52 -18 60 -21 8 -3 20 -7 25 -9 6 -2 69 -22 140 -44 114 -36 424 -120 495
-134 14 -2 59 -12 100 -21 41 -10 84 -18 95 -20 11 -1 56 -10 100 -19 109 -22
113 -23 170 -30 28 -4 57 -9 65 -11 8 -2 36 -6 62 -9 26 -3 58 -8 70 -10 13
-3 48 -8 79 -11 31 -3 65 -7 75 -9 11 -2 51 -7 89 -10 39 -4 81 -9 95 -11 14
-2 61 -6 105 -10 44 -3 103 -8 130 -10 65 -6 224 -15 350 -21 122 -5 725 -5
850 1 162 7 318 16 354 20 20 2 74 7 121 10 47 4 92 9 101 10 8 2 55 6 105 10
49 4 91 9 94 10 3 2 30 6 60 10 50 6 217 31 265 39 11 2 38 7 60 11 22 4 96
18 165 32 69 14 134 27 145 29 11 2 31 7 45 10 14 3 41 9 60 14 252 60 617
175 805 255 17 7 66 27 110 46 131 54 381 182 525 269 402 241 750 547 1006
885 270 357 458 743 575 1182 17 64 33 125 35 137 2 11 6 31 9 44 21 95 28
131 50 282 4 25 8 57 11 71 22 142 29 281 29 574 0 251 -4 345 -19 465 -9 66
-18 135 -21 149 -1 9 -10 57 -20 106 -89 480 -296 931 -604 1315 -113 140
-287 321 -406 421 -22 19 -42 36 -45 40 -15 17 -167 134 -254 196 -527 376
-1213 683 -2081 931 -149 43 -255 71 -294 79 -14 2 -28 6 -33 9 -4 3 -16 7
-25 9 -10 2 -122 29 -250 59 -127 30 -243 57 -257 60 -15 3 -34 7 -44 10 -17
6 -143 33 -277 61 -38 8 -101 22 -140 30 -38 9 -81 18 -95 21 -39 8 -313 72
-430 101 -207 50 -543 146 -605 173 -11 4 -65 25 -120 46 -517 194 -806 474
-889 859 -23 111 -28 153 -28 270 0 153 8 217 42 353 79 307 270 563 566 758
85 56 320 174 346 174 8 0 18 4 23 9 6 5 53 23 105 39 331 105 687 155 1095
154 255 -1 442 -17 690 -58 50 -8 122 -21 160 -30 39 -8 79 -16 90 -18 147
-28 550 -155 700 -221 17 -7 79 -34 138 -59 120 -52 385 -186 428 -216 15 -11
29 -20 32 -20 15 0 374 -235 436 -286 9 -7 54 -43 101 -80 176 -139 384 -336
520 -492 62 -73 62 -73 175 -16 132 66 326 216 486 377 255 256 422 537 491
831 17 74 21 121 21 251 0 149 -5 186 -38 333 -3 12 -20 61 -37 110 -124 346
-407 677 -813 953 -44 30 -82 57 -85 60 -13 16 -279 170 -397 230 -437 221
-1042 416 -1558 499 -33 5 -70 12 -81 14 -44 9 -100 18 -134 21 -31 4 -84 12
-130 20 -8 2 -42 6 -75 9 -65 7 -112 12 -189 21 -28 4 -73 8 -100 10 -65 5
-198 16 -256 21 -56 5 -986 14 -991 10z"/>
</g>
</svg>
