<svg xmlns="http://www.w3.org/2000/svg" xmlns:xlink="http://www.w3.org/1999/xlink" viewBox="0 0 498 653.99"><defs><style>.cls-1{fill:url(#linear-gradient);}.cls-2{fill:url(#linear-gradient-2);}.cls-3{fill:url(#linear-gradient-3);}.cls-4{fill:url(#linear-gradient-4);}.cls-5{fill:url(#linear-gradient-5);}.cls-6{fill:url(#linear-gradient-6);}.cls-7{fill:url(#linear-gradient-7);}.cls-8{fill:url(#linear-gradient-8);}.cls-9{fill:url(#linear-gradient-9);}.cls-10{fill:url(#linear-gradient-10);}.cls-11{fill:url(#linear-gradient-11);}.cls-12{fill:url(#linear-gradient-12);}.cls-13{fill:url(#linear-gradient-13);}.cls-14{fill:url(#linear-gradient-14);}.cls-15{fill:url(#linear-gradient-15);}.cls-16{fill:url(#linear-gradient-16);}.cls-17{fill:url(#linear-gradient-17);}.cls-18{fill:url(#linear-gradient-18);}.cls-19{fill:url(#linear-gradient-19);}.cls-20{fill:url(#linear-gradient-20);}.cls-21{fill:url(#linear-gradient-21);}.cls-22{fill:url(#linear-gradient-22);}.cls-23{fill:url(#linear-gradient-23);}.cls-24{fill:url(#linear-gradient-24);}.cls-25{fill:url(#linear-gradient-25);}.cls-26{fill:url(#linear-gradient-26);}.cls-27{fill:url(#linear-gradient-27);}.cls-28{fill:url(#linear-gradient-28);}.cls-29{fill:url(#linear-gradient-29);}.cls-30{fill:url(#linear-gradient-30);}.cls-31{fill:url(#linear-gradient-31);}.cls-32{fill:url(#linear-gradient-32);}.cls-33{fill:url(#linear-gradient-33);}.cls-34{fill:url(#linear-gradient-34);}.cls-35{fill:url(#linear-gradient-35);}.cls-36{fill:url(#linear-gradient-36);}.cls-37{fill:url(#linear-gradient-37);}.cls-38{fill:url(#linear-gradient-38);}.cls-39{fill:url(#linear-gradient-39);}.cls-40{fill:url(#linear-gradient-40);}.cls-41{fill:url(#linear-gradient-41);}.cls-42{fill:url(#linear-gradient-42);}.cls-43{fill:url(#linear-gradient-43);}</style><linearGradient id="linear-gradient" x1="15.5" y1="320.68" x2="498" y2="320.68" gradientUnits="userSpaceOnUse"><stop offset="0" stop-color="#8077d5"/><stop offset="1" stop-color="#8c6acc"/></linearGradient><linearGradient id="linear-gradient-2" x1="305" y1="404.09" x2="305" y2="404.09" gradientUnits="userSpaceOnUse"><stop offset="0" stop-color="#ee4e39"/><stop offset="1" stop-color="#f1873b"/></linearGradient><linearGradient id="linear-gradient-3" x1="310.55" y1="406.47" x2="310.61" y2="406.47" xlink:href="#linear-gradient-2"/><linearGradient id="linear-gradient-4" x1="0" y1="533.55" x2="472.93" y2="533.55" xlink:href="#linear-gradient-2"/><linearGradient id="linear-gradient-5" x1="317.19" y1="409.68" x2="317.29" y2="409.68" xlink:href="#linear-gradient-2"/><linearGradient id="linear-gradient-6" x1="472.93" y1="555.37" x2="472.93" y2="555.37" xlink:href="#linear-gradient-2"/><linearGradient id="linear-gradient-7" x1="242.99" y1="256.82" x2="242.48" y2="256.82" gradientUnits="userSpaceOnUse"><stop offset="0" stop-color="#3bbebe"/><stop offset="1" stop-color="#1870a1"/></linearGradient><linearGradient id="linear-gradient-8" x1="246.49" y1="257.61" x2="245.81" y2="257.61" xlink:href="#linear-gradient-7"/><linearGradient id="linear-gradient-9" x1="253.48" y1="259.18" x2="252.64" y2="259.18" xlink:href="#linear-gradient-7"/><linearGradient id="linear-gradient-10" x1="257.03" y1="259.96" x2="256.09" y2="259.96" xlink:href="#linear-gradient-7"/><linearGradient id="linear-gradient-11" x1="249.98" y1="258.4" x2="249.18" y2="258.4" xlink:href="#linear-gradient-7"/><linearGradient id="linear-gradient-12" x1="17.3" y1="165.99" x2="17.17" y2="165.99" xlink:href="#linear-gradient-7"/><linearGradient id="linear-gradient-13" x1="16.65" y1="171.64" x2="16.51" y2="171.64" xlink:href="#linear-gradient-7"/><linearGradient id="linear-gradient-14" x1="239.45" y1="256.02" x2="239.2" y2="256.02" xlink:href="#linear-gradient-7"/><linearGradient id="linear-gradient-15" x1="18.07" y1="161.16" x2="17.81" y2="161.16" xlink:href="#linear-gradient-7"/><linearGradient id="linear-gradient-16" x1="280.29" y1="264.93" x2="277.87" y2="264.93" xlink:href="#linear-gradient-7"/><linearGradient id="linear-gradient-17" x1="285.82" y1="265.91" x2="281.06" y2="265.91" xlink:href="#linear-gradient-7"/><linearGradient id="linear-gradient-18" x1="277.1" y1="264.01" x2="272.7" y2="264.01" xlink:href="#linear-gradient-7"/><linearGradient id="linear-gradient-19" x1="271.57" y1="262.74" x2="266.68" y2="262.74" xlink:href="#linear-gradient-7"/><linearGradient id="linear-gradient-20" x1="264.24" y1="261.55" x2="263.22" y2="261.55" xlink:href="#linear-gradient-7"/><linearGradient id="linear-gradient-21" x1="260.64" y1="260.75" x2="259.59" y2="260.75" xlink:href="#linear-gradient-7"/><linearGradient id="linear-gradient-22" x1="497.91" y1="469.87" x2="497.12" y2="469.87" xlink:href="#linear-gradient-7"/><linearGradient id="linear-gradient-23" x1="483.47" y1="116.7" x2="43.09" y2="116.7" xlink:href="#linear-gradient-7"/><linearGradient id="linear-gradient-24" x1="498" y1="459.6" x2="497.91" y2="459.6" xlink:href="#linear-gradient-7"/><linearGradient id="linear-gradient-25" x1="23.9" y1="136.64" x2="23.23" y2="136.64" xlink:href="#linear-gradient-7"/><linearGradient id="linear-gradient-26" x1="15.79" y1="182.26" x2="15.75" y2="182.26" xlink:href="#linear-gradient-7"/><linearGradient id="linear-gradient-27" x1="15.6" y1="187.3" x2="15.56" y2="187.3" xlink:href="#linear-gradient-7"/><linearGradient id="linear-gradient-28" x1="16.19" y1="176.49" x2="16.09" y2="176.49" xlink:href="#linear-gradient-7"/><linearGradient id="linear-gradient-29" x1="42.93" y1="98.88" x2="37.84" y2="98.88" xlink:href="#linear-gradient-7"/><linearGradient id="linear-gradient-30" x1="496.25" y1="485.52" x2="496.14" y2="485.52" xlink:href="#linear-gradient-7"/><linearGradient id="linear-gradient-31" x1="18.86" y1="156.51" x2="18.61" y2="156.51" xlink:href="#linear-gradient-7"/><linearGradient id="linear-gradient-32" x1="497.01" y1="480.54" x2="496.51" y2="480.54" xlink:href="#linear-gradient-7"/><linearGradient id="linear-gradient-33" x1="15.57" y1="195.64" x2="15.5" y2="195.64" xlink:href="#linear-gradient-7"/><linearGradient id="linear-gradient-34" x1="15.77" y1="203.33" x2="15.73" y2="203.33" xlink:href="#linear-gradient-7"/><linearGradient id="linear-gradient-35" x1="37.65" y1="104.87" x2="36.1" y2="104.87" xlink:href="#linear-gradient-7"/><linearGradient id="linear-gradient-36" x1="21.09" y1="146.51" x2="20.64" y2="146.51" xlink:href="#linear-gradient-7"/><linearGradient id="linear-gradient-37" x1="25.83" y1="131.7" x2="24.49" y2="131.7" xlink:href="#linear-gradient-7"/><linearGradient id="linear-gradient-38" x1="22.62" y1="140.84" x2="22.05" y2="140.84" xlink:href="#linear-gradient-7"/><linearGradient id="linear-gradient-39" x1="20.06" y1="150.89" x2="19.66" y2="150.89" xlink:href="#linear-gradient-7"/><linearGradient id="linear-gradient-40" x1="32.94" y1="113.87" x2="31.67" y2="113.87" xlink:href="#linear-gradient-7"/><linearGradient id="linear-gradient-41" x1="35.96" y1="109.45" x2="33.02" y2="109.45" xlink:href="#linear-gradient-7"/><linearGradient id="linear-gradient-42" x1="27.27" y1="126.98" x2="26.36" y2="126.98" xlink:href="#linear-gradient-7"/><linearGradient id="linear-gradient-43" x1="31.26" y1="120.28" x2="27.79" y2="120.28" xlink:href="#linear-gradient-7"/></defs><g id="Layer_2" data-name="Layer 2"><g id="Layer_1-2" data-name="Layer 1"><path class="cls-1" d="M285.82,266.44l-4.05-.91-1.42-.31-2.51-.56-1.89-.42-1.91-.42-2.42-.53-.3-.07c-40-8.81-73.3-15.87-94.42-29.83h0C116,209,49,86,49,86l-.15,0C27.14,115.57,15.5,151.7,15.5,192.81c0,128.86,102.7,165.67,202.5,188l3.66.81,2.32.52,1.24.28,4,.89.58.13,3.32.74.5.11,3.27.73.49.11,3.6.81h.05q7.45,1.69,14.65,3.4l.3.07,3.24.78.36.09,3.21.79.29.08c7,1.75,13.83,3.57,20.31,5.51l.13,0,3.1.94.13,0c6.41,2,12.5,4.12,18.22,6.44h0c.94.38,1.86.77,2.78,1.16l.11,0,2.67,1.17.07,0a121.24,121.24,0,0,1,12.77,6.62h0C342.8,422.22,455,511,472.93,555.37h0a165.29,165.29,0,0,0,10.85-21.76l.09-.22c.73-1.78,1.43-3.59,2.11-5.41l.15-.39a182.54,182.54,0,0,0,5.48-17.68c.05-.23.11-.47.17-.7.43-1.71.83-3.43,1.22-5.16.09-.43.19-.86.28-1.29.34-1.6.67-3.22,1-4.85.09-.43.17-.86.25-1.3q.51-2.82,1-5.7l.06-.4c.32-2.1.6-4.22.86-6.35l.12-1.08c.19-1.7.37-3.4.53-5.11.06-.67.11-1.35.17-2,.11-1.45.22-2.9.31-4.36.05-.74.09-1.47.13-2.21.08-1.5.15-3,.2-4.51,0-.67.05-1.33.07-2,0-2.16.09-4.34.09-6.53C498,338.14,399.17,291.63,285.82,266.44Z"/><polygon class="cls-2" points="305 404.09 305 404.09 305 404.09 305 404.09 305 404.09"/><path class="cls-3" d="M310.56,406.46h0l.06,0Z"/><path class="cls-4" d="M323.4,413.11h0c19.38,11.63,31.21,27.61,31.21,51.95,0,48.44-39.73,75.57-114.33,75.57-76.54,0-148.24-39.72-186-84.29C49.41,451.49,0,487.34,0,527.07c0,23.25,11.63,48.44,38.76,69.75C76.54,628.8,144.36,654,241.25,654c114.56,0,194-35.16,231.68-98.62C455,511,342.8,422.22,323.4,413.11Z"/><path class="cls-5" d="M317.29,409.7l-.1,0Z"/><polygon class="cls-6" points="472.93 555.37 472.93 555.37 472.93 555.37 472.93 555.37"/><path class="cls-7" d="M242.48,256.76l.51.12Z"/><path class="cls-8" d="M245.81,257.54l.68.15Z"/><path class="cls-9" d="M252.64,259.09l.84.19Z"/><path class="cls-10" d="M256.09,259.86l.94.21Z"/><path class="cls-11" d="M249.18,258.31l.8.18Z"/><path class="cls-12" d="M17.3,165.5c0,.33-.09.66-.13,1C17.21,166.16,17.26,165.83,17.3,165.5Z"/><path class="cls-13" d="M16.65,170.93c0,.47-.1.94-.14,1.42C16.55,171.87,16.6,171.4,16.65,170.93Z"/><path class="cls-14" d="M239.2,256l.25.06Z"/><path class="cls-15" d="M18.07,160.33c-.09.56-.18,1.11-.26,1.66C17.89,161.44,18,160.89,18.07,160.33Z"/><path class="cls-16" d="M280.29,265.2l-2.42-.53Z"/><path class="cls-17" d="M281.06,265.38l.71.15,4.05.91Z"/><path class="cls-18" d="M277.1,264.5l-4.4-1,1.34.3,1.91.42Z"/><path class="cls-19" d="M271.32,263.22l.25,0-4.89-1.07Z"/><path class="cls-20" d="M263.22,261.44l1,.22Z"/><path class="cls-21" d="M260.64,260.87l-1.05-.23Z"/><path class="cls-22" d="M497.91,462.88c0,.66-.05,1.33-.07,2,0,1.51-.12,3-.2,4.51,0,.74-.08,1.47-.13,2.21-.09,1.46-.2,2.91-.31,4.36,0,.3-.06.61-.08.91Q497.72,470,497.91,462.88Z"/><path class="cls-23" d="M48.85,86,49,86s67,123,127.9,147.4h0C161.13,223,152.11,208.71,152.11,187c0-45.53,40.7-73.63,108.52-73.63,66.85,0,129.83,32.94,166.64,76.54,2.91,2.91,56.2-30,56.2-74.6,0-23.26-13.57-48.45-43.6-68.79C404,20.35,344,0,259.66,0,157,0,81.19,35.31,43.09,94.39Q45.84,90.13,48.85,86Z"/><path class="cls-24" d="M497.91,462.86q.09-3.24.09-6.52C498,458.53,498,460.7,497.91,462.86Z"/><path class="cls-25" d="M23.9,135.54c-.23.73-.45,1.47-.67,2.21C23.45,137,23.67,136.27,23.9,135.54Z"/><path class="cls-26" d="M15.75,182.77c0-.34,0-.68,0-1C15.77,182.09,15.76,182.43,15.75,182.77Z"/><path class="cls-27" d="M15.56,188c0-.45,0-.9,0-1.35C15.59,187.08,15.57,187.53,15.56,188Z"/><path class="cls-28" d="M16.09,177.12c0-.42.06-.84.1-1.25C16.15,176.28,16.12,176.7,16.09,177.12Z"/><path class="cls-29" d="M42.93,94.64q-2.67,4.15-5.09,8.47Q40.26,98.81,42.93,94.64Z"/><path class="cls-30" d="M496.14,485.92h0c0-.27.07-.55.1-.82C496.22,485.38,496.18,485.65,496.14,485.92Z"/><path class="cls-31" d="M18.86,155.82c-.09.46-.17.92-.25,1.38C18.69,156.74,18.77,156.28,18.86,155.82Z"/><path class="cls-32" d="M496.51,482.92c.18-1.57.35-3.16.5-4.75C496.86,479.76,496.69,481.35,496.51,482.92Z"/><path class="cls-33" d="M15.5,192.81c0,1.9,0,3.79.07,5.66C15.53,196.6,15.5,194.71,15.5,192.81Z"/><path class="cls-34" d="M15.73,202.79c0,.36,0,.72,0,1.07C15.75,203.51,15.75,203.15,15.73,202.79Z"/><path class="cls-35" d="M37.65,103.45c-.53.94-1,1.88-1.55,2.83C36.61,105.33,37.12,104.39,37.65,103.45Z"/><path class="cls-36" d="M21.09,145.56l-.45,1.91Z"/><path class="cls-37" d="M25.83,129.71c-.46,1.32-.91,2.65-1.34,4C24.92,132.36,25.37,131,25.83,129.71Z"/><path class="cls-38" d="M22.62,139.83l-.57,2Z"/><path class="cls-39" d="M20.06,150c-.13.61-.27,1.22-.4,1.83C19.79,151.2,19.93,150.59,20.06,150Z"/><path class="cls-40" d="M32.94,112.51c-.43.9-.85,1.81-1.27,2.72C32.09,114.32,32.51,113.41,32.94,112.51Z"/><path class="cls-41" d="M36,106.54q-1.53,2.88-2.94,5.81Q34.43,109.43,36,106.54Z"/><path class="cls-42" d="M27.27,125.75c-.3.81-.61,1.63-.91,2.45C26.66,127.38,27,126.56,27.27,125.75Z"/><path class="cls-43" d="M31.26,116.15c-1.23,2.71-2.38,5.47-3.47,8.26C28.88,121.62,30,118.86,31.26,116.15Z"/></g></g></svg>