<svg xmlns="http://www.w3.org/2000/svg" viewBox="0 0 498 653.99"><defs><style>.cls-1{fill:#fff;}</style></defs><g id="Layer_2" data-name="Layer 2"><g id="Layer_1-2" data-name="Layer 1"><path class="cls-1" d="M498,456.34c0-118.2-98.83-164.71-212.18-189.9l-4.05-.91-1.42-.31-2.51-.56-1.89-.42-1.91-.42-2.42-.53-.3-.07c-40-8.81-73.3-15.87-94.42-29.83C161.13,223,152.11,208.71,152.11,187c0-45.53,40.7-73.63,108.52-73.63,66.85,0,129.83,32.94,166.64,76.54,2.91,2.91,56.2-30,56.2-74.6,0-23.26-13.57-48.45-43.6-68.79C404,20.35,344,0,259.66,0,162,0,88.6,32,48.9,86h0c-.7,1-1.39,1.92-2.08,2.89h0l-.56.81c-.21.29-.41.58-.61.88q-1.37,2-2.67,4h0q-1.22,1.89-2.37,3.81l-.48.8a167.19,167.19,0,0,0-8.83,16.9h0c-.58,1.29-1.14,2.58-1.69,3.89l-.18.44q-.82,2-1.59,3.93h0c-8.07,20.77-12.29,43.68-12.29,68.4,0,128.86,102.7,165.67,202.5,188l3.66.81,2.32.52,1.24.28,4,.89.58.13,3.32.74.5.11,3.27.73.49.11,3.6.81h.05q7.45,1.69,14.65,3.4l.3.07,3.24.78.36.09,3.21.79.29.08c7,1.75,13.83,3.57,20.31,5.51l.13,0,3.1.94.13,0c6.41,2,12.5,4.12,18.22,6.44h0c.94.38,1.86.77,2.78,1.16l.11,0,2.67,1.17.07,0a121.24,121.24,0,0,1,12.77,6.62h0c19.38,11.63,31.21,27.61,31.21,51.95,0,48.44-39.73,75.57-114.33,75.57-76.54,0-148.24-39.72-186-84.29C49.41,451.49,0,487.34,0,527.07c0,23.25,11.63,48.44,38.76,69.75C76.54,628.8,144.36,654,241.25,654c114.56,0,194-35.16,231.68-98.62h0a165.29,165.29,0,0,0,10.85-21.76l.09-.22c.73-1.78,1.43-3.59,2.11-5.41l.15-.39a182.54,182.54,0,0,0,5.48-17.68c.05-.23.11-.47.17-.7.43-1.71.83-3.43,1.22-5.16.09-.43.19-.86.28-1.29.34-1.6.67-3.22,1-4.85.09-.43.17-.86.25-1.3q.51-2.82,1-5.7l.06-.4c.23-1.52.42-3.05.62-4.59h0c0-.27.07-.55.1-.82l-.06.49c.06-.48.13-1,.19-1.44l.12-1.08c.19-1.7.37-3.4.53-5.11.06-.67.11-1.35.17-2,.11-1.45.22-2.9.31-4.36,0-.45.06-.9.08-1.35l0-.53c0-.11,0-.22,0-.33.08-1.5.15-3,.2-4.51,0-.66.05-1.33.07-2h0C498,460.71,498,458.53,498,456.34ZM40.56,98.45l-.48.79ZM29.56,120l-.18.43Z"/><path class="cls-1" d="M310.61,406.49l-.05,0h0Z"/><path class="cls-1" d="M266.68,262.2l4.64,1,.25,0Z"/></g></g></svg>